<?xml version="1.0" standalone="no"?>
<!DOCTYPE svg PUBLIC "-//W3C//DTD SVG 20010904//EN"
 "http://www.w3.org/TR/2001/REC-SVG-20010904/DTD/svg10.dtd">
<svg version="1.0" xmlns="http://www.w3.org/2000/svg"
 width="700.000000pt" height="700.000000pt" viewBox="0 0 700.000000 700.000000"
 preserveAspectRatio="xMidYMid meet">
<metadata>
Created by potrace 1.11, written by Peter Selinger 2001-2013
</metadata>
<g transform="translate(0.000000,700.000000) scale(0.100000,-0.100000)"
fill="#000000" stroke="none">
<path d="M4569 6996 c-2 -2 -29 -6 -60 -9 -190 -21 -491 -126 -619 -217 -15
-11 -31 -20 -35 -20 -20 0 -201 -149 -276 -227 -246 -255 -390 -550 -435 -893
-5 -38 -13 -188 -19 -345 -3 -77 -7 -151 -9 -165 -2 -14 -7 -54 -11 -90 -3
-36 -13 -96 -21 -135 -8 -38 -18 -83 -20 -98 -9 -47 -63 -205 -94 -274 -101
-222 -250 -382 -450 -483 -113 -57 -217 -87 -400 -117 -96 -16 -513 -7 -612
13 -27 5 -64 12 -110 19 -163 28 -394 126 -526 224 -135 101 -216 198 -376
449 -28 44 -115 100 -170 111 -53 10 -131 -1 -178 -25 -57 -29 -116 -100 -134
-161 -14 -47 -15 -91 -10 -292 4 -130 9 -252 11 -271 1 -19 6 -84 10 -145 4
-60 8 -112 10 -115 1 -3 6 -39 9 -80 5 -65 10 -106 31 -255 11 -78 37 -237 50
-300 8 -38 17 -86 20 -105 3 -19 18 -82 32 -140 13 -58 26 -112 28 -120 10
-49 74 -264 112 -375 266 -775 678 -1330 1230 -1659 223 -133 502 -242 748
-292 250 -51 360 -59 870 -59 l420 0 52 27 c55 29 111 91 133 147 22 54 17
158 -8 208 -33 63 -76 108 -130 134 -52 26 -39 25 -667 33 -176 3 -333 7 -350
10 -16 2 -50 8 -73 11 -24 4 -54 8 -65 11 -12 2 -35 7 -52 9 -16 3 -65 15
-108 25 -371 95 -689 293 -947 590 -275 316 -501 784 -634 1316 -30 118 -42
169 -71 304 -5 26 -46 283 -51 320 -2 19 -6 49 -9 66 -13 85 -16 144 -7 144 5
0 20 -8 33 -18 170 -129 550 -260 859 -296 245 -28 533 -29 720 -1 25 3 61 9
80 11 123 17 328 82 460 146 164 78 362 228 456 344 22 27 46 56 54 65 147
169 306 536 355 819 3 19 10 53 15 75 8 37 13 71 25 180 12 99 15 150 20 305
5 173 13 268 29 335 99 411 444 719 875 781 33 5 218 5 251 0 84 -12 119 -20
188 -42 277 -91 496 -284 617 -547 123 -265 122 -584 -1 -854 -96 -213 -269
-393 -471 -493 -140 -69 -247 -96 -414 -106 -162 -9 -255 -72 -294 -199 -55
-184 91 -357 295 -350 55 2 179 14 211 20 13 3 40 8 59 11 124 21 325 96 451
168 256 147 450 341 598 598 47 82 53 87 122 103 15 3 54 14 344 95 61 17 120
33 131 36 61 12 154 46 189 70 207 138 183 457 -42 561 -54 25 -85 30 -253 38
-110 5 -139 8 -232 26 -56 11 -58 13 -63 48 -7 38 -12 70 -20 110 -88 466
-415 890 -850 1102 -215 104 -404 149 -656 155 -92 2 -168 2 -170 0z"/>
<path d="M4865 5867 c-102 -49 -158 -137 -158 -246 0 -246 289 -365 463 -191
56 56 75 103 75 190 0 87 -19 134 -75 190 -52 52 -104 74 -185 78 -58 2 -79
-1 -120 -21z"/>
<path d="M5202 3401 c-28 -10 -62 -27 -74 -37 -87 -74 -111 -134 -110 -281 0
-69 -4 -106 -12 -107 -396 -101 -701 -340 -874 -683 -43 -86 -95 -230 -104
-288 -3 -18 -12 -20 -111 -22 -120 -2 -165 -13 -217 -51 -81 -60 -114 -126
-114 -227 0 -80 22 -132 79 -189 62 -62 127 -83 263 -81 91 0 93 0 98 -25 17
-73 72 -216 116 -301 158 -303 437 -538 758 -638 36 -11 77 -22 91 -25 25 -5
26 -6 26 -111 1 -133 21 -192 81 -251 57 -56 102 -76 180 -80 112 -5 209 51
258 151 24 49 27 67 28 168 l1 112 110 36 c61 19 139 49 175 66 74 35 226 134
284 184 137 119 257 277 333 439 37 78 84 217 92 270 1 3 53 6 116 6 103 1
120 4 170 28 58 29 112 86 136 146 8 19 14 66 13 105 0 77 -21 128 -71 181
-63 66 -115 84 -254 86 l-105 2 -33 105 c-65 210 -167 377 -326 537 -151 151
-335 263 -525 320 -123 37 -115 27 -116 135 -1 142 -15 187 -78 252 -74 76
-182 102 -284 68z m-157 -1086 c19 -42 78 -101 125 -125 99 -51 230 -31 308
48 45 45 81 111 82 150 0 12 2 22 5 22 13 0 143 -75 179 -103 71 -56 76 -61
130 -127 47 -58 123 -188 114 -194 -1 -1 -23 -8 -48 -15 -86 -25 -165 -106
-188 -192 -39 -146 60 -308 204 -335 19 -3 34 -8 34 -10 0 -16 -65 -129 -103
-179 -51 -69 -101 -117 -169 -163 -50 -35 -148 -86 -152 -80 -1 1 -11 25 -21
52 -65 177 -296 236 -434 111 -37 -34 -79 -100 -84 -133 -2 -12 -6 -24 -9 -27
-15 -15 -140 62 -251 154 -34 29 -109 131 -144 199 l-34 66 43 11 c132 33 220
159 204 292 -8 67 -26 108 -69 155 -36 39 -84 68 -138 83 l-37 10 25 55 c64
138 215 287 356 350 l42 19 8 -32 c4 -18 14 -46 22 -62z"/>
</g>
</svg>
